<?xml version="1.0" encoding="utf-8"?>
    <svg version="1.1" id="Layer_1" xmlns="http://www.w3.org/2000/svg" xmlns:xlink="http://www.w3.org/1999/xlink" x="0px" y="0px" viewBox="-50 -50 300 300" preserveAspectRatio="xMidYMid meet">
        <defs id="SvgjsDefs1001">
        </defs>
        <g id="SvgjsG1007" featurekey="monogramFeature-0" transform="matrix(2.135215852436632,0,0,2.135215852436632,49.914890783530765,-70.02870817196924)" fill="#fff">
            <path d="M36.54 70.14 c-14.46 7.02 -30.54 14.58 -33.66 14.58 c-2.7 0 -3.12 -1.86 -2.7 -4.62 c0.66 -4.62 6.24 -22.62 10.62 -39 c4.26 -15.78 6 -16.02 6.78 -16.14 c0.66 -0.06 1.02 -0.24 1.56 -0.54 c0.6 -0.36 0.24 1.2 -0.96 2.04 c-0.96 0.66 -1.62 1.8 -3.18 6.24 c-1.8 4.92 -3.06 8.22 -4.92 15.06 c-2.7 9.9 -7.38 27.06 -7.86 30.66 c-0.3 2.22 -0.3 4.38 0.9 4.38 s3.3 -0.42 13.92 -4.92 c10.68 -4.44 18.6 -8.46 19.86 -8.94 c0.3 -0.06 1.38 0.36 -0.36 1.2 z"></path>
        </g>
        <g id="SvgjsG1008" featurekey="nameFeature-0" transform="matrix(1.6729737807130778,0,0,1.6729737807130778,-7.025655127978244,108.90576407702608)" fill="#fff">
            <path d="M8.0859 36.4844 l9.4336 0 l0 3.5156 l-13.32 0 l0 -27.617 l3.8867 0 l0 24.102 z M47.13396484375 40 l-2.3047 -6.4453 l-12.344 0 l-2.3047 6.4453 l-4.043 0 l10.176 -27.617 l4.6875 0 l10.176 27.617 l-4.043 0 z M33.69676484375 30.1562 l9.9219 0 l-4.9609 -13.926 z M74.6786796875 40.37109 c-7.7344 0 -13.672 -5.293 -13.672 -14.102 c0 -8.8867 5.9766 -14.258 13.809 -14.258 c5.0781 0 9.4336 2.2266 11.816 6.4453 l-3.4375 1.8359 c-1.7383 -3.2422 -4.8438 -4.7461 -8.3789 -4.7461 c-5.5859 0 -9.9023 3.7891 -9.9023 10.645 c0 6.7578 4.2188 10.684 10.039 10.684 c4.6875 0 8.3594 -2.6367 9.0039 -7.8711 l-9.0234 0 l0 -3.2422 l12.793 0 l0 14.238 l-3.1641 0 l0 -4.9609 c-1.8164 3.3789 -5.2344 5.332 -9.8828 5.332 z M119.87989453125 12.383 l3.8672 0 l0 27.617 l-4.1992 0 l-14.434 -21.914 l0 21.914 l-3.8477 0 l0 -27.617 l4.1602 0 l14.453 21.816 l0 -21.816 z"></path>
        </g>
    </svg>